<svg xmlns="http://www.w3.org/2000/svg" viewBox="0 0 32 32"><defs><style>.cls-1{fill:#68c7d3;}.cls-2{fill:#d1e6e9;}.cls-3{fill:#a1d8df;}</style></defs><title>Weight</title><g id="Weight"><path class="cls-1" d="M20.6,1H11.4C7.55,1,5,4.52,5,8.16c0,2.42.89,3.64,3,7.84H24l2.18-4.35C28.5,7,25.62,1,20.6,1Zm2.89,9.3L22.15,13H9.85c-1.4-2.82-2.79-4.66-1-7.54A3,3,0,0,1,11.4,4h9.2C23.32,4,24.82,7.65,23.49,10.3Z"/><path class="cls-2" d="M27,20.74c0,2.26.2,5.06-2.5,7.76a8.53,8.53,0,0,1-6,2.5c-4.55,0-7.91.55-11-2.5a8.53,8.53,0,0,1-2.5-6c0-2.21-.16-4.24,1.59-6.69l.7-1a10.51,10.51,0,0,1,17.42,0C25.88,16.43,27,17.91,27,20.74Z"/><rect class="cls-3" x="11" y="17" width="10" height="8" rx="2"/></g></svg>